<?xml version="1.0" encoding="UTF-8"?>
<svg width="250px" height="50px" viewBox="0 0 250 50" version="1.1" xmlns="http://www.w3.org/2000/svg" xmlns:xlink="http://www.w3.org/1999/xlink">
    <title>Group@1x</title>
    <g id="Page-1" stroke="none" stroke-width="1" fill="none" fill-rule="evenodd">
        <g id="Splash" transform="translate(-112.000000, -383.000000)" fill-rule="nonzero">
            <g id="Group" transform="translate(112.000000, 383.000000)">
                <path d="M8.6105,49 L8.6105,29.4101562 L30.5245625,29.4101562 L30.5245625,21.6738281 L8.6105,21.6738281 L8.6105,9.8203125 L33.4464375,9.8203125 L33.4464375,2.08398438 L0.17690625,2.08398438 L0.17690625,49 L8.6105,49 Z M47.5120781,49.6640625 C51.2972344,49.6640625 55.71325,48.0039062 57.8714531,44.5839844 L58.3695,49 L65.0433281,49 L65.0433281,28.8789062 C65.0433281,20.7773438 59.7308281,15.1328125 50.6995781,15.1328125 C44.1585625,15.1328125 39.9417656,18.0546875 36.7542656,22.4042969 L42.96325,26.8867188 C44.3909844,24.4628906 46.947625,22.2050781 50.7659844,22.2050781 C56.0452813,22.2050781 57.5062188,24.296875 57.6722344,29.2109375 L48.6741875,29.2109375 C41.2366875,29.2109375 35.4593438,31.6015625 35.4593438,38.8066406 C35.4593438,45.7460938 40.7054375,49.6640625 47.5120781,49.6640625 Z M49.1390313,42.8242188 C45.5198906,42.8242188 43.760125,41.2636719 43.760125,39.0722656 C43.760125,36.9804688 45.4534844,35.0546875 49.1390313,35.0546875 L57.7054375,35.0546875 L57.7054375,35.3203125 C57.2073906,39.2382812 54.1195,42.8242188 49.1390313,42.8242188 Z M85.1851406,49.6640625 C88.47225,49.6640625 92.3238125,48.4023438 94.9800625,45.1152344 L94.9800625,49 L103.015219,49 L103.015219,15.8300781 L94.9800625,15.8300781 L94.9800625,33.9589844 C94.9800625,39.7363281 92.0581875,42.1933594 87.5093594,42.1933594 C83.3589688,42.1933594 81.1675625,39.0722656 81.1675625,34.7226562 L81.1675625,15.8300781 L73.1656094,15.8300781 L73.1656094,35.7519531 C73.1656094,42.6914062 76.4859219,49.6640625 85.1851406,49.6640625 Z M126.54375,49.6640625 C133.117969,49.6640625 138.297656,46.0117188 140.489063,39.8359375 L133.117969,37.046875 C132.254688,40.1679688 129.73125,42.3261719 126.477344,42.3261719 C120.832813,42.3261719 118.707813,37.5117188 118.707813,32.4648438 C118.707813,27.5175781 120.899219,22.4707031 126.477344,22.4707031 C129.797656,22.4707031 132.254688,24.7285156 133.117969,27.9160156 L140.821094,24.9277344 C138.297656,18.3203125 133.051563,15.1328125 126.477344,15.1328125 C115.653125,15.1328125 110.473438,23.765625 110.473438,32.4648438 C110.473438,41.2636719 115.719531,49.6640625 126.54375,49.6640625 Z M161.162125,49.6640625 C166.74025,49.6640625 171.156266,47.7050781 174.775406,43.6875 L169.197281,38.8066406 C166.873063,41.3964844 164.216813,42.3261719 161.228531,42.3261719 C156.015641,42.3261719 153.625016,39.4042969 152.92775,35.0546875 L175.705094,35.0546875 C175.871109,34.5898438 176.003922,33.2285156 176.003922,31.8671875 C176.003922,24.4628906 172.251969,15.1328125 160.630875,15.1328125 C149.408219,15.1328125 144.361344,23.8984375 144.361344,32.53125 C144.361344,41.4628906 149.74025,49.6640625 161.162125,49.6640625 Z M168.035172,29.2109375 L152.92775,29.2109375 C153.691422,25.0605469 155.783219,21.9394531 160.564469,21.9394531 C164.084,21.9394531 166.939469,23.6992188 167.769547,27.1191406 C167.968766,27.7832031 168.035172,28.4804688 168.035172,29.2109375 Z M195.382063,49.6640625 C197.805891,49.6640625 200.196516,49.1328125 201.425031,48.6679688 L201.425031,41.3300781 C200.329328,41.8613281 198.503156,42.5253906 196.809797,42.5253906 C194.684797,42.5253906 193.12425,41.5957031 193.12425,38.4082031 L193.12425,22.6035156 L201.425031,22.6035156 L201.425031,15.8300781 L193.12425,15.8300781 L193.12425,1.81835938 L185.1555,7.59570312 L185.1555,15.8300781 L179.676984,15.8300781 L179.676984,22.6035156 L185.022688,22.6035156 L185.022688,39.8359375 C185.022688,45.8789062 188.907453,49.6640625 195.382063,49.6640625 Z" id="Faucet" fill="#494C59"></path>
                <path d="M223.309321,10.8946 L226.402192,3.32161416 L224.393342,3.32161416 L222.551264,8.50672158 L220.716767,3.32161416 L218.700336,3.32161416 L221.785627,10.8946 L223.309321,10.8946 Z M232.683631,10.8946 L232.683631,0.183259668 L230.864295,0.183259668 L230.864295,0.835188379 C230.864295,1.54776162 230.447364,1.85856484 229.71963,1.85856484 L228.286903,1.85856484 L228.286903,3.32161416 L230.78849,3.32161416 L230.78849,10.8946 L232.683631,10.8946 Z M239.124262,10.8946 L239.124262,8.89333047 L237.267024,8.89333047 L237.267024,10.8946 L239.124262,10.8946 Z M245.428443,11.0462113 C248.301478,11.0462113 249.029212,8.21107949 249.029212,5.55030068 C249.029212,2.88194131 248.271156,0.00890664063 245.322315,0.00890664063 C242.153286,0.00890664063 241.725216,3.10423763 241.707019,5.37443854 L241.706385,5.53513955 C241.706385,7.80172891 242.108155,11.0462113 245.428443,11.0462113 Z M245.38296,9.23445596 C243.64701,9.23445596 243.593946,7.24834756 243.593946,5.53513955 C243.593946,3.81435098 243.64701,1.85856484 245.322315,1.85856484 C246.83009,1.85856484 247.017709,3.43047109 247.040155,4.99930721 L247.042894,5.34724679 L247.042894,5.34724679 L247.042235,5.86049971 C247.031952,7.46471377 246.904127,9.23445596 245.38296,9.23445596 Z" id="v1.0" fill="#0E47D7"></path>
            </g>
        </g>
    </g>
</svg>